<svg width="24px" height="24px" viewBox="0 0 24 24" version="1.1" xmlns="http://www.w3.org/2000/svg" xmlns:xlink="http://www.w3.org/1999/xlink">
    <g id="Symbols" stroke="none" stroke-width="1" fill="none" fill-rule="evenodd">
        <g id="multiple-19" transform="translate(3.000000, 3.000000)">
            <path d="M9.27789877,1 C11.7352481,1 13.7278988,2.99265068 13.7278988,5.45 L13.7278988,5.45 L13.7278988,6.95 C13.7278988,7.8992749 13.4297919,8.78139156 12.919699,9.50577669 C13.8053523,9.87503253 14.6813315,10.518986 15.5502276,11.4263615 C16.179661,12.0836697 16.5310208,12.9586094 16.5310208,13.8686866 C16.5310208,15.7539392 15.0536698,17.2941448 13.1934955,17.3947706 L12.999743,17.4 L5.51324141,17.4 C4.58934686,17.4 3.70262371,17.0361212 3.0451087,16.3870544 C1.66427445,15.0239622 1.64989172,12.7995702 3.01298397,11.418736 C3.94729108,10.472268 4.80766769,9.81692113 5.61001498,9.46661936 C5.11617864,8.75211206 4.82789877,7.88467037 4.82789877,6.95 L4.82789877,6.95 L4.82789877,5.45 C4.82789877,3.08055699 6.68519222,1.1295296 9.06049931,1.00543743 L9.06049931,1.00543743 Z M6.71207695,10.5860641 L6.66362425,10.5922406 C5.9890459,10.7161614 5.09026966,11.3072382 4.00931357,12.402264 C3.18940884,13.2328406 3.1980601,14.5708201 4.0286367,15.3907248 C4.38018404,15.7377552 4.84065454,15.9492678 5.32894919,15.9919663 L5.51320554,16 L12.999727,16 C14.1768132,15.9999732 15.1310208,15.0457573 15.1310208,13.8686866 C15.1310208,13.3194159 14.9189601,12.7913522 14.53907,12.3946385 C13.5821739,11.3953658 12.6682797,10.8081712 11.803225,10.6097299 C11.1440376,11.066423 10.3534765,11.3497291 9.49529823,11.3945626 L9.49529823,11.3945626 L9.27789877,11.4 C8.32243251,11.4 7.43721981,11.0987493 6.71207695,10.5860641 Z M9.27789877,2.4 L9.11535957,2.40424198 C7.50116964,2.48873483 6.22789877,3.82626517 6.22789877,5.45 L6.22789877,5.45 L6.22789877,6.95 C6.22789877,7.90156393 6.66392924,8.75151409 7.34374567,9.31094433 C7.34598812,9.31092187 7.34757069,9.31213454 7.3491479,9.31335379 L7.36700385,9.32989369 C7.88683895,9.74920758 8.54568008,10.0001363 9.25962908,10.0002385 L9.25962908,10.0002385 L9.44043796,9.99575802 C11.0546279,9.91126517 12.3278988,8.57373483 12.3278988,6.95 L12.3278988,6.95 L12.3278988,5.45 C12.3278988,3.76584932 10.9620494,2.4 9.27789877,2.4 L9.27789877,2.4 Z" id="Combined-Shape" fill="currentColor" fill-rule="nonzero"></path>
        </g>
    </g>
</svg>
