<svg data-name="Layer 1" xmlns="http://www.w3.org/2000/svg" viewBox="0 0 122.88 104.43"><path d="M97 0a25.9 25.9 0 1 1-18.33 7.59A25.79 25.79 0 0 1 97 0ZM3.66 10.89a3.71 3.71 0 0 1 0-7.42h5.45A17.3 17.3 0 0 1 18 5.81c4.92 3.12 5.79 7.57 7 12.59h41.7a31 31 0 0 0-.9 7.33H27.14l8.36 31.46h59.27v-.18c.72.05 1.44.08 2.17.08a31.59 31.59 0 0 0 5.46-.48l-1.29 5.18a3.62 3.62 0 0 1-3.57 2.82H37.47c1.32 4.88 2.63 7.51 4.42 8.74 2.16 1.4 5.92 1.5 12.21 1.4h42.54a3.67 3.67 0 1 1 0 7.33H54.19c-7.79.09-12.58-.09-16.44-2.63s-6-7.14-8.07-15.31L17.09 16.52c0-.09 0-.09-.09-.19a6.51 6.51 0 0 0-2.82-4.22A9.51 9.51 0 0 0 9 10.89H3.66Zm57.21 22.58a2.6 2.6 0 0 1 5.11 0v14.16a2.6 2.6 0 0 1-5.11 0V33.47Zm-15.3 0a2.6 2.6 0 0 1 5.11 0v14.16a2.6 2.6 0 0 1-5.11 0V33.47ZM85.66 86.4a9 9 0 1 1-9 9 9 9 0 0 1 9-9Zm-39.55 0a9 9 0 1 1-9 9 9 9 0 0 1 9-9Zm64.08-62.91v4.81a2.09 2.09 0 0 1-2.07 2.07h-6.66V37a2.08 2.08 0 0 1-2.07 2.07h-4.81A2.07 2.07 0 0 1 92.51 37v-6.63h-6.66a2.08 2.08 0 0 1-2.07-2.07v-4.81a2.07 2.07 0 0 1 2.07-2.07h6.66v-6.66a2.07 2.07 0 0 1 2.07-2.07h4.81a2.08 2.08 0 0 1 2.07 2.07v6.66h6.66a2.08 2.08 0 0 1 2.07 2.07Z" style="fill-rule:evenodd"/></svg>
