<svg xmlns="http://www.w3.org/2000/svg" viewBox="0 0 20 20"><g fill="none" fill-rule="evenodd" stroke="currentColor" stroke-linecap="round" stroke-linejoin="round" stroke-width=".5" transform="translate(1.5 .75)"><ellipse cx="8.42" cy="9.24" rx="2.46" ry="2.52"/><path d="M14.975 9.244a6.754 6.754 0 0 0-.233-1.68l2.098-1.85-1.23-2.184-2.587.934a6.503 6.503 0 0 0-2.864-1.68L9.649 0H7.191l-.51 2.79c-1.08.3-2.065.879-2.864 1.68l-2.588-.94L0 5.715l2.098 1.848a6.768 6.768 0 0 0-.233 1.681c.007.568.085 1.133.233 1.681L0 12.774l1.23 2.185 2.587-.933a6.493 6.493 0 0 0 2.864 1.68l.51 2.782h2.458l.51-2.79a6.503 6.503 0 0 0 2.864-1.68l2.588.932 1.229-2.185-2.098-1.84a6.766 6.766 0 0 0 .233-1.68z"/></g></svg>
