<svg width="24" height="24" viewBox="0 0 24 24" fill="none" xmlns="http://www.w3.org/2000/svg"><path d="M17.5 20.25h-11a2.75 2.75 0 0 1-2.745-2.902l.562-10.135A3.667 3.667 0 0 1 7.98 3.75h8.043a3.667 3.667 0 0 1 3.662 3.463l.562 10.134A2.75 2.75 0 0 1 17.5 20.25" stroke="currentColor" stroke-width="1.5" stroke-linecap="round" stroke-linejoin="round"/><path fill-rule="evenodd" clip-rule="evenodd" d="M8.333 7.354a.75.75 0 0 1 .75.75 2.917 2.917 0 0 0 5.834 0 .75.75 0 0 1 1.5 0 4.417 4.417 0 1 1-8.834 0 .75.75 0 0 1 .75-.75" fill="currentColor"/></svg>
