<svg width="18" height="18" viewBox="0 0 18 18" fill="none" xmlns="http://www.w3.org/2000/svg">
  <path d="M9.5625 5.8125C9.5625 5.50184 9.31066 5.25 9 5.25C8.68934 5.25 8.4375 5.50184 8.4375 5.8125V9.1875C8.4375 9.49816 8.68934 9.75 9 9.75H12.1875C12.4982 9.75 12.75 9.49816 12.75 9.1875C12.75 8.87684 12.4982 8.625 12.1875 8.625H9.5625V5.8125Z" fill="#2B2B2B"/>
  <path fill-rule="evenodd" clip-rule="evenodd" d="M9 2.25C5.27208 2.25 2.25 5.27208 2.25 9C2.25 12.7279 5.27208 15.75 9 15.75C12.7279 15.75 15.75 12.7279 15.75 9C15.75 5.27208 12.7279 2.25 9 2.25ZM3.375 9C3.375 5.8934 5.8934 3.375 9 3.375C12.1066 3.375 14.625 5.8934 14.625 9C14.625 12.1066 12.1066 14.625 9 14.625C5.8934 14.625 3.375 12.1066 3.375 9Z" fill="#2B2B2B"/>
</svg>
