<svg xmlns="http://www.w3.org/2000/svg" width="14" height="14" fill="none"><path fill="currentColor" d="M13.504 6.607 12 5.103V2.556A.556.556 0 0 0 11.444 2H8.897L7.393.496a.555.555 0 0 0-.786 0L5.103 2H2.555A.556.556 0 0 0 2 2.556v2.547L.496 6.607a.555.555 0 0 0 0 .786L2 8.897v2.547c0 .307.249.556.555.556h2.548l1.504 1.504a.554.554 0 0 0 .786 0L8.897 12h2.547a.556.556 0 0 0 .556-.556V8.897l1.504-1.504a.555.555 0 0 0 0-.786ZM5.055 4.222a.834.834 0 1 1 0 1.668.834.834 0 0 1 0-1.668Zm3.89 5.556a.834.834 0 1 1 0-1.667.834.834 0 0 1 0 1.667Zm-4.167.23-.786-.786 5.23-5.23.786.786-5.23 5.23Z"/></svg>
