<svg xmlns="http://www.w3.org/2000/svg" width="400" height="226" fill="none"><g clip-path="url(#clipPath-a-wishlist-empty)"><path fill="#fff" d="M0 0h400v226H0z"/><g clip-path="url(#clipPath-b-wishlist-empty)" style="mix-blend-mode:multiply"><g stroke="#000" opacity=".12"><g clip-path="url(#clipPath-c-wishlist-empty)"><path d="M421-41.5h-50.25v46H421zm-50.25 0H320.5v46h50.25zm-50.25 0h-50.25v46h50.25zm-50.25 0H220v46h50.25z"/></g><g clip-path="url(#clipPath-d-wishlist-empty)"><path d="M421 4.5h-50.25v46H421zm-50.25 0H320.5v46h50.25zm-50.25 0h-50.25v46h50.25zm-50.25 0H220v46h50.25z"/></g><g clip-path="url(#clipPath-e-wishlist-empty)"><path d="M421 50.5h-50.25v46H421zm-50.25 0H320.5v46h50.25zm-50.25 0h-50.25v46h50.25zm-50.25 0H220v46h50.25z"/></g><g clip-path="url(#clipPath-f-wishlist-empty)"><path d="M421 96.5h-50.25v46H421zm-50.25 0H320.5v46h50.25zm-50.25 0h-50.25v46h50.25zm-50.25 0H220v46h50.25z"/></g><g clip-path="url(#clipPath-g-wishlist-empty)"><path d="M421 142.5h-50.25v46H421zm-50.25 0H320.5v46h50.25zm-50.25 0h-50.25v46h50.25zm-50.25 0H220v46h50.25z"/></g><g clip-path="url(#clipPath-h-wishlist-empty)"><path d="M421 188.5h-50.25v46H421zm-50.25 0H320.5v46h50.25zm-50.25 0h-50.25v46h50.25zm-50.25 0H220v46h50.25z"/></g></g><path fill="url(#gradient-i-wishlist-empty)" d="M0 0h344v400H0z" transform="matrix(-1 0 0 1 565 -212)"/><path fill="url(#gradient-j-wishlist-empty)" d="M0 0h344v400H0z" transform="matrix(-1 0 0 1 565 -212)"/><path fill="url(#gradient-k-wishlist-empty)" d="M0 0h344v400H0z" transform="matrix(-1 0 0 1 565 -212)"/></g><g clip-path="url(#clipPath-l-wishlist-empty)" style="mix-blend-mode:multiply"><g stroke="#000" opacity=".12"><g clip-path="url(#clipPath-m-wishlist-empty)"><path d="M-21-41.5h50.25v46H-21zm50.25 0H79.5v46H29.25zm50.25 0h50.25v46H79.5zm50.25 0H180v46h-50.25z"/></g><g clip-path="url(#clipPath-n-wishlist-empty)"><path d="M-21 4.5h50.25v46H-21zm50.25 0H79.5v46H29.25zm50.25 0h50.25v46H79.5zm50.25 0H180v46h-50.25z"/></g><g clip-path="url(#clipPath-o-wishlist-empty)"><path d="M-21 50.5h50.25v46H-21zm50.25 0H79.5v46H29.25zm50.25 0h50.25v46H79.5zm50.25 0H180v46h-50.25z"/></g><g clip-path="url(#clipPath-p-wishlist-empty)"><path d="M-21 96.5h50.25v46H-21zm50.25 0H79.5v46H29.25zm50.25 0h50.25v46H79.5zm50.25 0H180v46h-50.25z"/></g><g clip-path="url(#clipPath-q-wishlist-empty)"><path d="M-21 142.5h50.25v46H-21zm50.25 0H79.5v46H29.25zm50.25 0h50.25v46H79.5zm50.25 0H180v46h-50.25z"/></g><g clip-path="url(#clipPath-r-wishlist-empty)"><path d="M-21 188.5h50.25v46H-21zm50.25 0H79.5v46H29.25zm50.25 0h50.25v46H79.5zm50.25 0H180v46h-50.25z"/></g></g><path fill="url(#gradient-s-wishlist-empty)" d="M0 0h344v400H0z" transform="translate(-165 -212)"/><path fill="url(#gradient-t-wishlist-empty)" d="M0 0h344v400H0z" transform="translate(-165 -212)"/><path fill="url(#gradient-u-wishlist-empty)" d="M0 0h344v400H0z" transform="translate(-165 -212)"/></g><g filter="url(#filter-v-wishlist-empty)"><g clip-path="url(#clipPath-w-wishlist-empty)"><path fill="#FAFAFA" d="M130 13c0-6.627 5.373-12 12-12h116c6.627 0 12 5.373 12 12v163c0 6.627-5.373 12-12 12H142c-6.627 0-12-5.373-12-12z"/><g filter="url(#filter-x-wishlist-empty)"><mask id="mask-z-wishlist-empty" fill="#fff"><path d="M138 17a8 8 0 0 1 8-8h108a8 8 0 0 1 8 8v124a8 8 0 0 1-8 8H146a8 8 0 0 1-8-8z"/></mask><path fill="#fff" d="M138 17a8 8 0 0 1 8-8h108a8 8 0 0 1 8 8v124a8 8 0 0 1-8 8H146a8 8 0 0 1-8-8z"/><path fill="url(#gradient-y-wishlist-empty)" d="M146 10h108V8H146zm115 7v124h2V17zm-7 131H146v2h108zm-115-7V17h-2v124zm7 7a7 7 0 0 1-7-7h-2a9 9 0 0 0 9 9zm115-7a7 7 0 0 1-7 7v2a9 9 0 0 0 9-9zm-7-131a7 7 0 0 1 7 7h2a9 9 0 0 0-9-9zM146 8a9 9 0 0 0-9 9h2a7 7 0 0 1 7-7z" mask="url(#mask-z-wishlist-empty)"/><path fill="#EBEBEB" d="M200 63.278c1.723-2.015 4.703-4.278 9.24-4.278 7.935 0 13.26 7.45 13.26 14.388C222.5 87.89 204.445 99 200 99s-22.5-11.11-22.5-25.612C177.5 66.45 182.825 59 190.76 59c4.538 0 7.518 2.263 9.24 4.278"/></g><g filter="url(#filter-A-wishlist-empty)"><mask id="mask-C-wishlist-empty" fill="#fff"><path d="M138 174a6 6 0 0 1 6-6h36a6 6 0 1 1 0 12h-36a6 6 0 0 1-6-6"/></mask><path fill="#fff" d="M138 174a6 6 0 0 1 6-6h36a6 6 0 1 1 0 12h-36a6 6 0 0 1-6-6"/><path fill="url(#gradient-B-wishlist-empty)" d="M144 169h36v-2h-36zm36 10h-36v2h36zm-36 0a5 5 0 0 1-5-5h-2a7 7 0 0 0 7 7zm41-5a5 5 0 0 1-5 5v2a7 7 0 0 0 7-7zm-5-5a5 5 0 0 1 5 5h2a7 7 0 0 0-7-7zm-36-2a7 7 0 0 0-7 7h2a5 5 0 0 1 5-5z" mask="url(#mask-C-wishlist-empty)"/></g><g filter="url(#filter-D-wishlist-empty)"><mask id="mask-F-wishlist-empty" fill="#fff"><path d="M138 159a6 6 0 0 1 6-6h78a6 6 0 1 1 0 12h-78a6 6 0 0 1-6-6"/></mask><path fill="#fff" d="M138 159a6 6 0 0 1 6-6h78a6 6 0 1 1 0 12h-78a6 6 0 0 1-6-6"/><path fill="url(#gradient-E-wishlist-empty)" d="M144 154h78v-2h-78zm78 10h-78v2h78zm-78 0a5 5 0 0 1-5-5h-2a7 7 0 0 0 7 7zm83-5a5 5 0 0 1-5 5v2a7 7 0 0 0 7-7zm-5-5a5 5 0 0 1 5 5h2a7 7 0 0 0-7-7zm-78-2a7 7 0 0 0-7 7h2a5 5 0 0 1 5-5z" mask="url(#mask-F-wishlist-empty)"/></g></g></g></g><defs><clipPath id="clipPath-a-wishlist-empty"><path fill="#fff" d="M0 0h400v226H0z"/></clipPath><clipPath id="clipPath-b-wishlist-empty"><path fill="#fff" d="M565-212H221v400h344z"/></clipPath><clipPath id="clipPath-c-wishlist-empty"><path fill="#fff" d="M522-42H-82V5h604z"/></clipPath><clipPath id="clipPath-d-wishlist-empty"><path fill="#fff" d="M522 4H-82v47h604z"/></clipPath><clipPath id="clipPath-e-wishlist-empty"><path fill="#fff" d="M522 50H-82v47h604z"/></clipPath><clipPath id="clipPath-f-wishlist-empty"><path fill="#fff" d="M522 96H-82v47h604z"/></clipPath><clipPath id="clipPath-g-wishlist-empty"><path fill="#fff" d="M522 142H-82v47h604z"/></clipPath><clipPath id="clipPath-h-wishlist-empty"><path fill="#fff" d="M522 188H-82v47h604z"/></clipPath><clipPath id="clipPath-l-wishlist-empty"><path fill="#fff" d="M-165-212h344v400h-344z"/></clipPath><clipPath id="clipPath-m-wishlist-empty"><path fill="#fff" d="M-122-42h604V5h-604z"/></clipPath><clipPath id="clipPath-n-wishlist-empty"><path fill="#fff" d="M-122 4h604v47h-604z"/></clipPath><clipPath id="clipPath-o-wishlist-empty"><path fill="#fff" d="M-122 50h604v47h-604z"/></clipPath><clipPath id="clipPath-p-wishlist-empty"><path fill="#fff" d="M-122 96h604v47h-604z"/></clipPath><clipPath id="clipPath-q-wishlist-empty"><path fill="#fff" d="M-122 142h604v47h-604z"/></clipPath><clipPath id="clipPath-r-wishlist-empty"><path fill="#fff" d="M-122 188h604v47h-604z"/></clipPath><clipPath id="clipPath-w-wishlist-empty"><path fill="#fff" d="M130 13c0-6.627 5.373-12 12-12h116c6.627 0 12 5.373 12 12v163c0 6.627-5.373 12-12 12H142c-6.627 0-12-5.373-12-12z"/></clipPath><linearGradient id="gradient-i-wishlist-empty" x1="163" x2="363" y1="298" y2="375" gradientUnits="userSpaceOnUse"><stop stop-color="#fff"/><stop offset="1" stop-color="#fff" stop-opacity="0"/></linearGradient><linearGradient id="gradient-j-wishlist-empty" x1="206" x2="205" y1="400" y2="338" gradientUnits="userSpaceOnUse"><stop stop-color="#fff"/><stop offset="1" stop-color="#fff" stop-opacity="0"/></linearGradient><linearGradient id="gradient-k-wishlist-empty" x1="187" x2="197" y1="285" y2="189" gradientUnits="userSpaceOnUse"><stop stop-color="#fff" stop-opacity="0"/><stop offset="1" stop-color="#fff"/></linearGradient><linearGradient id="gradient-s-wishlist-empty" x1="159" x2="363" y1="282" y2="375" gradientUnits="userSpaceOnUse"><stop stop-color="#fff"/><stop offset="1" stop-color="#fff" stop-opacity="0"/></linearGradient><linearGradient id="gradient-t-wishlist-empty" x1="206" x2="205" y1="400" y2="338" gradientUnits="userSpaceOnUse"><stop stop-color="#fff"/><stop offset="1" stop-color="#fff" stop-opacity="0"/></linearGradient><linearGradient id="gradient-u-wishlist-empty" x1="187" x2="197" y1="285" y2="189" gradientUnits="userSpaceOnUse"><stop stop-color="#fff" stop-opacity="0"/><stop offset="1" stop-color="#fff"/></linearGradient><linearGradient id="gradient-y-wishlist-empty" x1="200" x2="200" y1="9" y2="149" gradientUnits="userSpaceOnUse"><stop stop-color="#E6E6E6"/><stop offset="1" stop-color="#D8D8D8"/></linearGradient><linearGradient id="gradient-B-wishlist-empty" x1="162" x2="162" y1="168" y2="180" gradientUnits="userSpaceOnUse"><stop stop-color="#E6E6E6"/><stop offset="1" stop-color="#D8D8D8"/></linearGradient><linearGradient id="gradient-E-wishlist-empty" x1="183" x2="183" y1="153" y2="165" gradientUnits="userSpaceOnUse"><stop stop-color="#E6E6E6"/><stop offset="1" stop-color="#D8D8D8"/></linearGradient><filter id="filter-v-wishlist-empty" width="196" height="243" x="102" y="-5" color-interpolation-filters="sRGB" filterUnits="userSpaceOnUse"><feFlood flood-opacity="0" result="BackgroundImageFix"/><feColorMatrix in="SourceAlpha" result="hardAlpha" values="0 0 0 0 0 0 0 0 0 0 0 0 0 0 0 0 0 0 127 0"/><feMorphology in="SourceAlpha" radius="20" result="effect1_dropShadow_11854_77905"/><feOffset dy="22"/><feGaussianBlur stdDeviation="24"/><feComposite in2="hardAlpha" operator="out"/><feColorMatrix values="0 0 0 0 0 0 0 0 0 0 0 0 0 0 0 0 0 0 0.2 0"/><feBlend in2="BackgroundImageFix" result="effect1_dropShadow_11854_77905"/><feColorMatrix in="SourceAlpha" result="hardAlpha" values="0 0 0 0 0 0 0 0 0 0 0 0 0 0 0 0 0 0 127 0"/><feOffset dy="2"/><feGaussianBlur stdDeviation="2"/><feComposite in2="hardAlpha" operator="out"/><feColorMatrix values="0 0 0 0 0 0 0 0 0 0 0 0 0 0 0 0 0 0 0.1 0"/><feBlend in2="effect1_dropShadow_11854_77905" result="effect2_dropShadow_11854_77905"/><feColorMatrix in="SourceAlpha" result="hardAlpha" values="0 0 0 0 0 0 0 0 0 0 0 0 0 0 0 0 0 0 127 0"/><feMorphology in="SourceAlpha" operator="dilate" radius="1" result="effect3_dropShadow_11854_77905"/><feOffset/><feComposite in2="hardAlpha" operator="out"/><feColorMatrix values="0 0 0 0 0 0 0 0 0 0 0 0 0 0 0 0 0 0 0.05 0"/><feBlend in2="effect2_dropShadow_11854_77905" result="effect3_dropShadow_11854_77905"/><feBlend in="SourceGraphic" in2="effect3_dropShadow_11854_77905" result="shape"/></filter><filter id="filter-x-wishlist-empty" width="196" height="212" x="102" y="-15" color-interpolation-filters="sRGB" filterUnits="userSpaceOnUse"><feFlood flood-opacity="0" result="BackgroundImageFix"/><feColorMatrix in="SourceAlpha" result="hardAlpha" values="0 0 0 0 0 0 0 0 0 0 0 0 0 0 0 0 0 0 127 0"/><feMorphology in="SourceAlpha" radius="20" result="effect1_dropShadow_11854_77905"/><feOffset dy="12"/><feGaussianBlur stdDeviation="28"/><feComposite in2="hardAlpha" operator="out"/><feColorMatrix values="0 0 0 0 0 0 0 0 0 0 0 0 0 0 0 0 0 0 0.15 0"/><feBlend in2="BackgroundImageFix" result="effect1_dropShadow_11854_77905"/><feColorMatrix in="SourceAlpha" result="hardAlpha" values="0 0 0 0 0 0 0 0 0 0 0 0 0 0 0 0 0 0 127 0"/><feOffset dy="2"/><feGaussianBlur stdDeviation="2"/><feComposite in2="hardAlpha" operator="out"/><feColorMatrix values="0 0 0 0 0 0 0 0 0 0 0 0 0 0 0 0 0 0 0.04 0"/><feBlend in2="effect1_dropShadow_11854_77905" result="effect2_dropShadow_11854_77905"/><feBlend in="SourceGraphic" in2="effect2_dropShadow_11854_77905" result="shape"/></filter><filter id="filter-A-wishlist-empty" width="56" height="20" x="134" y="166" color-interpolation-filters="sRGB" filterUnits="userSpaceOnUse"><feFlood flood-opacity="0" result="BackgroundImageFix"/><feColorMatrix in="SourceAlpha" result="hardAlpha" values="0 0 0 0 0 0 0 0 0 0 0 0 0 0 0 0 0 0 127 0"/><feOffset dy="2"/><feGaussianBlur stdDeviation="2"/><feComposite in2="hardAlpha" operator="out"/><feColorMatrix values="0 0 0 0 0 0 0 0 0 0 0 0 0 0 0 0 0 0 0.04 0"/><feBlend in2="BackgroundImageFix" result="effect1_dropShadow_11854_77905"/><feBlend in="SourceGraphic" in2="effect1_dropShadow_11854_77905" result="shape"/></filter><filter id="filter-D-wishlist-empty" width="98" height="20" x="134" y="151" color-interpolation-filters="sRGB" filterUnits="userSpaceOnUse"><feFlood flood-opacity="0" result="BackgroundImageFix"/><feColorMatrix in="SourceAlpha" result="hardAlpha" values="0 0 0 0 0 0 0 0 0 0 0 0 0 0 0 0 0 0 127 0"/><feOffset dy="2"/><feGaussianBlur stdDeviation="2"/><feComposite in2="hardAlpha" operator="out"/><feColorMatrix values="0 0 0 0 0 0 0 0 0 0 0 0 0 0 0 0 0 0 0.04 0"/><feBlend in2="BackgroundImageFix" result="effect1_dropShadow_11854_77905"/><feBlend in="SourceGraphic" in2="effect1_dropShadow_11854_77905" result="shape"/></filter></defs></svg>