<svg width="15" height="12" viewBox="0 0 15 12" fill="none" xmlns="http://www.w3.org/2000/svg">
<path fill-rule="evenodd" clip-rule="evenodd" d="M8.47554 1.88973C8.08494 1.4992 8.08494 0.866037 8.47554 0.475507C8.86604 0.0849872 9.49914 0.0849872 9.88971 0.475507L8.47554 1.88973ZM14 6.00002L14.7071 5.29292C14.8946 5.48042 15 5.73482 15 6.00002C15 6.26522 14.8946 6.51962 14.7071 6.70712H14.7071L9.88971 11.5245C9.49914 11.915 8.86604 11.915 8.47554 11.5245C8.08494 11.1339 8.08494 10.5008 8.47554 10.1103L11.5858 7.00002H1.86875V5.00002H11.5858L8.47554 1.88973L9.88971 0.47551L14.7071 5.29292L14 6.00001V6.00002ZM14 6.00002V6.00004L14.7071 6.70712L14 6.00002ZM1.86874 7.00002C1.31644 7.00002 0.868744 6.55232 0.868744 6.00002C0.868744 5.44772 1.31644 5.00002 1.86874 5.00002V7.00002Z" fill="currentColor"/>
</svg>
