<svg xmlns="http://www.w3.org/2000/svg" width="14" height="15" fill="none"><path stroke="currentColor" stroke-linecap="round" stroke-linejoin="round" stroke-width="1.3" d="M10.7 13.5h-8a2 2 0 0 1-2-2v-8c0-1.1.9-2 2-2h8a2 2 0 0 1 2 2v8a2 2 0 0 1-2 2Z"/><path stroke="currentColor" stroke-linecap="round" stroke-linejoin="round" stroke-width="1.3" d="M6.7 7c0-1.6 1-2.8 2.4-2.8.6 0 1 .4 1 1 0 1.3-1.5 2.3-3.4 2.3-2 0-3.5-1-3.5-2.3 0-.6.5-1 1-1 1.4 0 2.5 1.2 2.5 2.8"/><path stroke="currentColor" stroke-linecap="round" stroke-linejoin="round" stroke-width="1.3" d="M4 10c1.5 0 2.7-1.3 2.7-3h0c0 1.7 1.2 3 2.6 3M6.7 1.5v12M12.7 7.5H.7"/></svg>
