<svg width="13" height="14" viewBox="0 0 13 14" fill="none" xmlns="http://www.w3.org/2000/svg">
<g clip-path="url(#clip0_8778_13872)">
<path d="M6.49967 11.875C7.69629 11.875 8.66634 9.69239 8.66634 7C8.66634 4.30761 7.69629 2.125 6.49967 2.125C5.30306 2.125 4.33301 4.30761 4.33301 7C4.33301 9.69239 5.30306 11.875 6.49967 11.875Z" stroke="currentColor" stroke-linecap="round" stroke-linejoin="round"/>
<path d="M11.375 7H1.625" stroke="white" stroke-linecap="round" stroke-linejoin="round"/>
<path d="M7.04167 2.125H5.95833C3.5651 2.125 1.625 4.0651 1.625 6.45833V7.54167C1.625 9.9349 3.5651 11.875 5.95833 11.875H7.04167C9.4349 11.875 11.375 9.9349 11.375 7.54167V6.45833C11.375 4.0651 9.4349 2.125 7.04167 2.125Z" stroke="currentColor" stroke-linecap="round" stroke-linejoin="round"/>
</g>
<defs>
<clipPath id="clip0_8778_13872">
<rect width="13" height="13" fill="currentColor" transform="translate(0 0.5)"/>
</clipPath>
</defs>
</svg>