<svg width="24" height="24" viewBox="0 0 24 24" fill="currentColor" xmlns="http://www.w3.org/2000/svg"><path fill-rule="evenodd" clip-rule="evenodd" d="M12 7.81a1.4 1.4 0 0 1-1.064-.49c-.431-.505-1.132-1.031-2.221-1.031C6.87 6.289 5.4 8.09 5.4 10.004c0 2 1.266 3.927 2.947 5.45.82.741 1.68 1.332 2.408 1.731.365.2.679.341.923.43.188.068.29.088.322.094a2 2 0 0 0 .322-.094c.244-.089.558-.23.923-.43.728-.398 1.589-.99 2.408-1.731 1.681-1.523 2.947-3.45 2.947-5.45 0-1.913-1.47-3.715-3.315-3.715-1.09 0-1.79.526-2.22 1.03A1.4 1.4 0 0 1 12 7.81m-1.062-2.312c.444.272.795.6 1.062.912a4.5 4.5 0 0 1 1.062-.912 4.2 4.2 0 0 1 2.223-.61c2.822 0 4.715 2.65 4.715 5.116 0 5.157-6.42 9.107-8 9.107s-8-3.95-8-9.107C4 7.538 5.893 4.89 8.715 4.89a4.2 4.2 0 0 1 2.223.609"/></svg>
