<svg width="10" height="10" viewBox="0 0 10 10" fill="none" xmlns="http://www.w3.org/2000/svg"><g clip-path="url(#a)" stroke-width="1.1" stroke-linecap="round" stroke-linejoin="round"><path d="M7.917 8.75H2.084"/><path d="M5 5 3.167 6.375A1.67 1.67 0 0 0 2.5 7.708v.625a.417.417 0 0 0 .417.417h4.166a.417.417 0 0 0 .417-.417v-.625a1.67 1.67 0 0 0-.667-1.333zM2.084 1.25h5.833M5 5l1.833-1.375A1.67 1.67 0 0 0 7.5 2.292v-.625a.417.417 0 0 0-.417-.417H2.917a.417.417 0 0 0-.417.417v.625a1.67 1.67 0 0 0 .667 1.333z" stroke="inherit"/></g><defs><clipPath id="a"><path fill="#fff" d="M0 0h10v10H0z"/></clipPath></defs></svg>
