<svg width="12" height="12" viewBox="0 0 12 12" fill="currentColor" xmlns="http://www.w3.org/2000/svg"><g clip-path="url(#a)"><path fill-rule="evenodd" clip-rule="evenodd" d="M4 2.075A1.925 1.925 0 0 0 2.075 4v4A1.925 1.925 0 0 0 4 9.925h4A1.925 1.925 0 0 0 9.925 8V4A1.925 1.925 0 0 0 8 2.075zm-2.174-.25A3.08 3.08 0 0 1 4 .926h4A3.075 3.075 0 0 1 11.075 4v4A3.075 3.075 0 0 1 8 11.075H4A3.075 3.075 0 0 1 .925 8V4c0-.816.324-1.598.9-2.174M5.997 3.25a.75.75 0 1 0 .006 1.5.75.75 0 0 0-.006-1.5m-.372 1.892a.575.575 0 0 0-.075 1.145v1.805a.575.575 0 0 0 1.15 0V5.717a.575.575 0 0 0-.575-.575z"/></g><defs><clipPath id="a"><path  d="M0 0h12v12H0z"/></clipPath></defs></svg>
