<svg width="20" height="20" viewBox="0 0 20 20" fill="none" xmlns="http://www.w3.org/2000/svg"><path d="M8.688 9.497c0-.345.28-.625.624-.625h.834c.345 0 .625.28.625.625v4.167a.625.625 0 1 1-1.25 0v-3.542h-.209a.625.625 0 0 1-.624-.625ZM9.896 8.29a.833.833 0 1 0 0-1.666.833.833 0 0 0 0 1.667Z" fill="currentColor"/><path fill-rule="evenodd" clip-rule="evenodd" d="M3.125 9.999a6.875 6.875 0 1 1 13.75 0A6.875 6.875 0 0 1 10 16.874a6.875 6.875 0 0 1-6.875-6.875ZM10 4.374a5.625 5.625 0 1 0 0 11.25 5.625 5.625 0 0 0 0-11.25Z" fill="currentColor"/></svg>
