<?xml version="1.0" encoding="UTF-8"?>
<svg width="24px" height="24px" viewBox="0 0 24 24" version="1.1" xmlns="http://www.w3.org/2000/svg" xmlns:xlink="http://www.w3.org/1999/xlink">
    <title>ic-location</title>
    <g id="Symbols" stroke="none" stroke-width="1" fill="none" fill-rule="evenodd">
        <g id="Icons-/-ic-location" fill="currentColor" fill-rule="nonzero">
            <path d="M12,2.08333333 C16.0147318,2.08333333 19.4166667,5.14788624 19.4166667,9.5 C19.4166667,10.7283701 18.919253,12.1555199 18.0201331,13.7628723 C17.4590256,14.7659615 16.7515223,15.8189473 15.9309458,16.9010825 C15.1882494,17.8805135 14.3940783,18.8305407 13.5999149,19.715702 C13.4608862,19.870661 13.3267641,20.0181219 13.1983574,20.1575185 L13.1983574,20.1575185 L12.8310922,20.5509487 L12.5336138,20.8603593 C12.2399854,21.157658 11.7600146,21.157658 11.4663862,20.8603593 L11.4663862,20.8603593 L10.9898651,20.3604942 L10.6048471,19.9424462 L10.4000851,19.715702 C9.60592174,18.8305407 8.81175061,17.8805135 8.06905417,16.9010825 C7.24847768,15.8189473 6.54097439,14.7659615 5.9798669,13.7628723 C5.08074702,12.1555199 4.58333333,10.7283701 4.58333333,9.5 C4.58333333,5.14788624 7.98526822,2.08333333 12,2.08333333 Z M12,3.58333333 C8.78078683,3.58333333 6.08333333,6.01327078 6.08333333,9.5 C6.08333333,10.4205844 6.5037768,11.6268958 7.28897211,13.0305858 C7.8127561,13.966952 8.48273333,14.9640872 9.26427916,15.9947508 C9.97991606,16.938497 10.7482449,17.8576104 11.5165815,18.7139855 C11.6509904,18.8637954 11.7805401,19.0062311 11.904412,19.1407095 L11.904412,19.1407095 L12,19.243 L12.4834185,18.7139855 C13.2517551,17.8576104 14.0200839,16.938497 14.7357208,15.9947508 C15.5172667,14.9640872 16.1872439,13.966952 16.7110279,13.0305858 C17.4962232,11.6268958 17.9166667,10.4205844 17.9166667,9.5 C17.9166667,6.01327078 15.2192132,3.58333333 12,3.58333333 Z M12,6.25 C13.7949254,6.25 15.25,7.70507456 15.25,9.5 C15.25,11.2949254 13.7949254,12.75 12,12.75 C10.2050746,12.75 8.75,11.2949254 8.75,9.5 C8.75,7.70507456 10.2050746,6.25 12,6.25 Z M12,7.75 C11.0335017,7.75 10.25,8.53350169 10.25,9.5 C10.25,10.4664983 11.0335017,11.25 12,11.25 C12.9664983,11.25 13.75,10.4664983 13.75,9.5 C13.75,8.53350169 12.9664983,7.75 12,7.75 Z" id="Combined-Shape"></path>
        </g>
    </g>
</svg>