<svg width="24" height="24" viewBox="0 0 24 24" fill="none" xmlns="http://www.w3.org/2000/svg">
  <circle cx="12" cy="12" r="9" stroke="currentColor" stroke-width="2" stroke-linecap="round"/>
  <path d="M16.2425 9.17137C16.633 8.78084 16.633 8.14767 16.2425 7.75715C15.852 7.36663 15.2188 7.36663 14.8283 7.75715L16.2425 9.17137ZM7.75725 14.8282C7.36672 15.2187 7.36673 15.8519 7.75725 16.2424C8.14778 16.633 8.78094 16.633 9.17146 16.2424L7.75725 14.8282ZM9.28551 7.64311C8.89499 7.25259 8.26182 7.25259 7.8713 7.64311C7.48077 8.03364 7.48077 8.6668 7.8713 9.05733L9.28551 7.64311ZM14.9424 16.1284C15.3329 16.519 15.9661 16.519 16.3566 16.1284C16.7471 15.7379 16.7471 15.1047 16.3566 14.7142L14.9424 16.1284ZM14.8283 7.75715L7.75725 14.8282L9.17146 16.2424L16.2425 9.17137L14.8283 7.75715ZM7.8713 9.05733L14.9424 16.1284L16.3566 14.7142L9.28551 7.64311L7.8713 9.05733Z" fill="currentColor"/>
</svg>
