<svg width="12" height="10" viewBox="0 0 12 10" fill="none" xmlns="http://www.w3.org/2000/svg"><path fill-rule="evenodd" clip-rule="evenodd" d="M2.059 7.23A11.5 11.5 0 0 1 .357 5.3l-.2-.3.2-.3a11.5 11.5 0 0 1 1.702-1.93C3.076 1.85 4.458.963 5.999.963s2.922.886 3.94 1.807A11.5 11.5 0 0 1 11.64 4.7l.201.3-.2.3c-.05.074-.687 1.012-1.702 1.93-1.018.921-2.4 1.808-3.94 1.808S3.076 8.15 2.059 7.23m-.753-2.29L1.26 5l.046.059c.335.43.969 1.175 1.785 1.813S4.916 8.051 6 8.051c1.086 0 2.095-.54 2.91-1.178a10.7 10.7 0 0 0 1.782-1.813l.046-.06-.046-.058a10.8 10.8 0 0 0-1.785-1.814C8.09 2.49 7.08 1.949 5.999 1.949c-1.086 0-2.096.54-2.91 1.178a10.7 10.7 0 0 0-1.783 1.814" fill="currentColor"/></svg>
