<svg xmlns="http://www.w3.org/2000/svg" viewBox="0 0 20 20">
  <path fill="#1B59A2" d="M16 5.5v9.017A1.484 1.484 0 0 1 14.517 16H5.483A1.484 1.484 0 0 1 4 14.517v-9.03A1.484 1.484 0 0 1 5.483 4l9.038.013A1.491 1.491 0 0 1 16 5.5zm-6 2.254a.568.568 0 1 1 0-1.135.568.568 0 0 1 0 1.135zm0 .373a.939.939 0 1 0 0-1.878.939.939 0 0 0 0 1.878zm0 2.812a.941.941 0 0 0 .813-1.408.94.94 0 1 0-.813 1.408zm0 2.442a.567.567 0 1 1-.001-1.135.567.567 0 0 1 .001 1.135zm0 .369a.938.938 0 1 0 .127-1.871A.938.938 0 0 0 10 13.75zm2.811-5.627a.938.938 0 1 0 0-1.873.938.938 0 0 0 0 1.877v-.004zM7.19 7.759a.568.568 0 1 1 0-1.137.568.568 0 0 1 0 1.137zm0 .372a.938.938 0 1 0 0-1.876.938.938 0 0 0 0 1.876zm5.622 2.812a.938.938 0 1 0 .001-1.877.938.938 0 0 0-.001 1.877zM7.19 10.57a.565.565 0 1 1-.001-1.131.565.565 0 0 1 .001 1.131zm0 .373a.938.938 0 1 0 0-1.877.938.938 0 0 0 0 1.877zm5.622 2.811a.94.94 0 1 0 .127-1.875.94.94 0 0 0-.127 1.875zm-5.622-.368a.57.57 0 0 1-.492-.852.567.567 0 1 1 .492.852zm0 .368a.938.938 0 1 0 .127-1.871.938.938 0 0 0-.127 1.871z"/>
</svg>

