<svg xmlns="http://www.w3.org/2000/svg" viewBox="0 0 20 20"><path fill="currentColor" d="M13.088 6.912a3.974 3.974 0 0 0-3.97 3.97c0 2.08 3.291 5.259 3.667 5.615.17.161.437.161.607 0 .375-.356 3.667-3.536 3.667-5.615a3.975 3.975 0 0 0-3.97-3.97zm0 5.735a1.765 1.765 0 1 1 .001-3.529 1.765 1.765 0 0 1-.001 3.529zM6.03 2.941A3.093 3.093 0 0 0 2.94 6.03c0 1.606 2.5 4.02 2.785 4.291a.44.44 0 0 0 .607 0c.285-.27 2.785-2.685 2.785-4.29a3.093 3.093 0 0 0-3.089-3.089zm0 4.412a1.324 1.324 0 1 1 .001-2.647 1.324 1.324 0 0 1-.002 2.647zm3.529 8.382a3.974 3.974 0 0 1-3.97-3.97.44.44 0 1 1 .882-.001 3.092 3.092 0 0 0 3.088 3.089.441.441 0 0 1 0 .882z"/></svg>
