<svg width="36" height="36" viewBox="0 0 36 36" fill="none" xmlns="http://www.w3.org/2000/svg"><path d="m14 28.5 17.5-12v-4L5 12l-.5.5V23l.5 3.5 2.5 2z" fill="#fff"/><path d="M31.5 12h-27v-2l1-2.5L9 6h13.5l6.5.5L31 9z" fill="#EBEBEB"/><path d="M13.5 28.5H9A4.5 4.5 0 0 1 4.5 24V10.5A4.5 4.5 0 0 1 9 6h18a4.5 4.5 0 0 1 4.5 4.5v6" stroke="#171717" stroke-width="1.8" stroke-linecap="round" stroke-linejoin="round"/><path d="M18.75 18.75 18 18m6 0 .75-.75m-7.5 7.5L18 24" stroke="#757575" stroke-width="1.8" stroke-linecap="round" stroke-linejoin="round"/><path fill-rule="evenodd" clip-rule="evenodd" d="m30.581 26.62-2.257.949a1.4 1.4 0 0 0-.75.75l-.953 2.263a1.5 1.5 0 0 1-2.821-.158l-1.987-6.748a1.5 1.5 0 0 1 1.862-1.863l6.748 1.985a1.5 1.5 0 0 1 .158 2.822" fill="#EBEBEB" stroke="#757575" stroke-width="1.8" stroke-linecap="round" stroke-linejoin="round"/><path d="M4.5 12h27" stroke="#171717" stroke-width="1.8" stroke-linecap="round" stroke-linejoin="round"/></svg>
