<svg xmlns="http://www.w3.org/2000/svg" width="18" height="18" fill="none"><path stroke="currentColor" stroke-linecap="round" stroke-linejoin="round" stroke-width="1.15" d="M13.773 4.227A6.752 6.752 0 0 1 9 15.75a6.75 6.75 0 1 1 4.773-11.523ZM5.625 7.125h3.75"/><path stroke="currentColor" stroke-linecap="round" stroke-linejoin="round" stroke-width="1.15" d="M11.294 6.33A1.126 1.126 0 1 1 9.76 7.977a1.126 1.126 0 0 1 1.535-1.647ZM12.375 7.125h-.75M12.375 10.875h-3.75M8.294 10.08a1.125 1.125 0 1 1-1.534 1.646 1.125 1.125 0 0 1 1.534-1.646ZM5.625 10.875h.75"/></svg>
