<svg xmlns="http://www.w3.org/2000/svg" viewBox="0 0 20 20">
  <g fill="none" fill-rule="evenodd">
    <path stroke="currentColor" stroke-linecap="round" stroke-linejoin="round" stroke-width=".5" d="M5.333 6.735V5a4.013 4.013 0 014-4 4.012 4.012 0 014 4v1.735"/>
    <circle cx="9.33" cy="12.67" r="7.08" stroke="currentColor" stroke-width=".5"/>
    <path fill="currentColor" fill-rule="nonzero" d="M6.215 14.055c.426 0 .767-.098 1.021-.294a.941.941 0 00.382-.785c0-.205-.046-.383-.137-.534a1.204 1.204 0 00-.42-.397 3.342 3.342 0 00-.786-.311c-.335-.094-.572-.198-.712-.311a.52.52 0 01-.208-.417c0-.205.073-.365.22-.48.146-.115.35-.173.612-.173.283 0 .501.07.656.21.155.138.233.33.233.573h.534c0-.223-.06-.429-.179-.617s-.287-.336-.503-.443a1.666 1.666 0 00-.74-.16c-.406 0-.736.104-.99.311a.977.977 0 00-.38.787c0 .28.104.517.311.707.208.191.54.352.995.483.363.105.614.212.752.32.139.108.208.26.208.458a.557.557 0 01-.224.467c-.15.115-.365.172-.645.172-.3 0-.54-.07-.72-.212a.692.692 0 01-.27-.577H4.69c0 .235.065.444.195.628.13.185.315.33.554.436.24.106.498.16.775.16zm3.614 0c.426 0 .766-.098 1.02-.294a.942.942 0 00.383-.785c0-.205-.046-.383-.137-.534a1.213 1.213 0 00-.42-.397c-.19-.113-.452-.217-.787-.311s-.572-.198-.71-.311a.52.52 0 01-.21-.417c0-.205.074-.365.22-.48.147-.115.351-.173.613-.173.282 0 .5.07.656.21.155.138.232.33.232.573h.534c0-.223-.06-.429-.178-.617a1.225 1.225 0 00-.504-.443 1.66 1.66 0 00-.74-.16c-.406 0-.735.104-.99.311a.977.977 0 00-.38.787c0 .28.104.517.312.707.207.191.539.352.994.483.364.105.615.212.753.32.138.108.208.26.208.458a.555.555 0 01-.225.467c-.149.115-.364.172-.644.172-.3 0-.541-.07-.721-.212a.692.692 0 01-.27-.577h-.534c0 .235.065.444.195.628.13.185.315.33.555.436.24.106.498.16.775.16zM14.607 14v-.434h-1.909V9.97h-.534V14h2.443z"/>
  </g>
</svg>
