<svg xmlns="http://www.w3.org/2000/svg" width="46" height="54" fill="none"><g filter="url(#a)"><path fill="#fff" d="M25.785 41.722a39 39 0 0 1-1.683 1.818 1.55 1.55 0 0 1-2.204 0 39 39 0 0 1-1.683-1.818 81 81 0 0 1-4.1-5.089c-1.491-2.02-3.003-4.303-4.147-6.573C10.837 27.815 10 25.456 10 23.318 10 14.852 16.667 10 23 10s13 4.852 13 13.318c0 2.138-.837 4.496-1.968 6.742-1.144 2.27-2.656 4.553-4.146 6.573a81 81 0 0 1-4.101 5.089"/></g><path fill="#fff" stroke="#fff" stroke-linecap="round" stroke-linejoin="round" stroke-width="1.5" d="M24.285 31.86c-.254.317-.51.618-.777.91a.677.677 0 0 1-1.016 0 19 19 0 0 1-.777-.91 40 40 0 0 1-1.893-2.543c-.688-1.01-1.386-2.152-1.914-3.287-.522-1.123-.908-2.302-.908-3.371C17 18.426 20.077 16 23 16s6 2.426 6 6.659c0 1.069-.386 2.248-.908 3.37-.528 1.136-1.226 2.278-1.914 3.288a40 40 0 0 1-1.893 2.544"/><path fill="#000" d="M24.928 36.392c-.382.446-.765.872-1.165 1.283a1.06 1.06 0 0 1-1.526 0c-.4-.411-.783-.837-1.165-1.283a57 57 0 0 1-2.839-3.592c-1.032-1.426-2.079-3.037-2.87-4.64C14.578 26.575 14 24.91 14 23.4c0-5.975 4.615-9.4 9-9.4s9 3.425 9 9.4c0 1.51-.58 3.175-1.362 4.76-.793 1.603-1.84 3.214-2.871 4.64a57 57 0 0 1-2.839 3.592"/><circle cx="23" cy="23" r="3" fill="#fff"/><defs><filter id="a" width="46" height="54" x="0" y="0" color-interpolation-filters="sRGB" filterUnits="userSpaceOnUse"><feFlood flood-opacity="0" result="BackgroundImageFix"/><feColorMatrix in="SourceAlpha" result="hardAlpha" values="0 0 0 0 0 0 0 0 0 0 0 0 0 0 0 0 0 0 127 0"/><feOffset/><feGaussianBlur stdDeviation="5"/><feComposite in2="hardAlpha" operator="out"/><feColorMatrix values="0 0 0 0 0 0 0 0 0 0 0 0 0 0 0 0 0 0 0.25 0"/><feBlend in2="BackgroundImageFix" result="effect1_dropShadow_646_9059"/><feBlend in="SourceGraphic" in2="effect1_dropShadow_646_9059" result="shape"/></filter></defs></svg>