<svg viewBox="0 0 16 16" xmlns="http://www.w3.org/2000/svg"><g clip-path="url(#a)"><path fill-rule="evenodd" clip-rule="evenodd" d="M8 .875c-1.9 0-2.142.008-2.89.042a5.3 5.3 0 0 0-1.74.333 3.7 3.7 0 0 0-2.12 2.12 5.3 5.3 0 0 0-.333 1.74C.883 5.859.875 6.1.875 8s.008 2.142.042 2.89c.012.595.124 1.183.333 1.74v.001a3.7 3.7 0 0 0 2.12 2.119 5.3 5.3 0 0 0 1.74.333c.748.034.99.042 2.89.042s2.142-.008 2.89-.042a5.3 5.3 0 0 0 1.74-.333h.001a3.7 3.7 0 0 0 2.119-2.12 5.3 5.3 0 0 0 .333-1.74c.034-.748.042-.99.042-2.89s-.008-2.142-.042-2.89a5.3 5.3 0 0 0-.333-1.74 3.7 3.7 0 0 0-2.12-2.118 5.3 5.3 0 0 0-1.74-.333C10.141.883 9.9.875 8 .875M5.177 2.427c.735-.034.955-.04 2.823-.04s2.088.006 2.823.04h.004c.43.005.855.084 1.257.233a2.2 2.2 0 0 1 1.256 1.256c.149.402.228.828.233 1.257v.004c.034.735.04.955.04 2.823s-.006 2.088-.04 2.823v.004c-.005.43-.084.855-.233 1.257a2.2 2.2 0 0 1-1.256 1.256 3.8 3.8 0 0 1-1.257.233h-.004c-.735.034-.954.04-2.823.04s-2.088-.006-2.823-.04h-.004a3.8 3.8 0 0 1-1.257-.233 2.2 2.2 0 0 1-1.256-1.256 3.8 3.8 0 0 1-.233-1.257v-.004c-.034-.735-.04-.955-.04-2.823s.006-2.088.04-2.823v-.004c.005-.43.084-.855.233-1.257A2.2 2.2 0 0 1 3.916 2.66a3.8 3.8 0 0 1 1.257-.233zm6.56.872a.965.965 0 1 0 0 1.93.965.965 0 0 0 0-1.93M8 4.28a3.72 3.72 0 1 0 0 7.439 3.72 3.72 0 0 0 0-7.44m-.43 1.553a2.208 2.208 0 1 1 .86 4.332 2.208 2.208 0 0 1-.86-4.332" fill="#000"/></g><defs><clipPath id="a"><path fill="#fff" d="M0 0h16v16H0z"/></clipPath></defs></svg>
