<svg viewBox="0 0 16 16" xmlns="http://www.w3.org/2000/svg"><path fill-rule="evenodd" clip-rule="evenodd" d="M13.964 1H2.033C1.463 1 1 1.452 1 2.01v11.98c0 .557.463 1.01 1.033 1.01h11.931c.571 0 1.036-.453 1.036-1.01V2.01C15 1.451 14.535 1 13.964 1M3.074 6.248h2.079v6.682H3.075zm1.04-3.32a1.204 1.204 0 1 1-.001 2.408 1.204 1.204 0 0 1 .001-2.409m4.332 3.32h-1.99v6.682H8.53V9.625c0-.872.164-1.716 1.245-1.716 1.066 0 1.079.997 1.079 1.772v3.249h2.076V9.265c0-1.799-.389-3.182-2.49-3.182-1.011 0-1.689.554-1.965 1.079h-.029z"/></svg>
