<svg xmlns="http://www.w3.org/2000/svg" viewBox="0 0 16 16"><path d="M13.774.334c1.032 0 1.87.838 1.87 1.87V13.77c0 1.032-.838 1.87-1.87 1.87H2.209a1.871 1.871 0 0 1-1.87-1.87V2.204c0-1.032.838-1.87 1.87-1.87h11.565Zm-2.65 7.185c-.202-.007-.291-.093-.302-.104l.018-.297.002-.032c.046-.734.104-1.648-.129-2.17-.697-1.563-2.178-1.685-2.615-1.685h-.026l-.191.002c-.437 0-1.914.122-2.611 1.684-.233.521-.175 1.434-.129 2.169l.02.329c-.012.012-.109.105-.331.105-.161 0-.347-.049-.554-.146a.308.308 0 0 0-.126-.025c-.175 0-.391.113-.422.275-.018.095.02.282.48.463.042.017.095.034.152.052.23.073.578.183.684.435.059.137.04.304-.055.497a.022.022 0 0 1-.003.005c-.029.068-.726 1.657-2.28 1.912a.115.115 0 0 0-.095.119.192.192 0 0 0 .015.065c.065.151.354.364 1.365.52.087.013.119.141.165.348.017.08.035.163.06.249.029.099.096.113.158.113.059 0 .136-.016.226-.033.148-.029.351-.069.608-.069.142 0 .29.013.438.037.304.051.562.233.835.426.396.28.805.569 1.442.569a.94.94 0 0 0 .054-.002l.082.002c.638 0 1.047-.289 1.444-.569.272-.193.53-.375.833-.426a2.767 2.767 0 0 1 1.047.028c.096.019.172.028.226.028h.012c.078 0 .124-.034.145-.108.025-.085.043-.166.061-.248.05-.226.082-.333.164-.346 1.012-.156 1.301-.369 1.365-.519a.188.188 0 0 0 .016-.065.115.115 0 0 0-.095-.119c-1.555-.256-2.252-1.844-2.281-1.912l-.002-.005c-.095-.193-.114-.36-.056-.498.107-.251.455-.361.685-.434.057-.018.11-.035.152-.052.403-.159.485-.321.483-.429-.002-.114-.104-.223-.26-.279l-.004-.001a.493.493 0 0 0-.186-.036.397.397 0 0 0-.162.032 1.36 1.36 0 0 1-.522.145Z"/></svg>
