<svg xmlns="http://www.w3.org/2000/svg" viewBox="0 0 16 16"><path d="M13.113.333H2.862A2.527 2.527 0 0 0 .333 2.862v10.251a2.527 2.527 0 0 0 2.529 2.529h10.251a2.527 2.527 0 0 0 2.529-2.529V2.862A2.527 2.527 0 0 0 13.113.333Zm-.599 11.782.067.066c.066.067.066.2 0 .333-.067.067-.134.133-.267.133H9.985c-.134 0-.2-.066-.267-.133l-1.73-2.929-1.731 2.929c-.067.133-.133.2-.266.2h-2.33c-.133 0-.2-.067-.266-.133-.067-.067-.067-.2 0-.333 0-.067 0-.067.066-.067l2.33-4.193-2.396-4.127-.067-.067c0-.133 0-.266.067-.333.066-.133.199-.199.266-.199h2.33c.133 0 .199.066.266.133L7.988 6.39l1.73-2.929c.067-.133.133-.199.267-.199h2.329c.133 0 .2.066.267.133.066.066.066.199 0 .333 0 .066 0 .066-.067.066l-2.33 4.194 2.33 4.127Z"/></svg>
