<svg xmlns="http://www.w3.org/2000/svg" viewBox="0 0 52 14">
  <path fill="currentColor" fill-rule="evenodd" d="M8.782 0c3.786 0 7.242 2.885 7.242 7.06 0 3.819-3.456 6.94-7.242 6.94H6.986C3.154 14.018 0 10.88 0 7.06 0 2.888 3.154 0 6.986 0h1.796zm-1.78.579C3.498.58.661 3.449.661 6.988c0 3.539 2.837 6.406 6.34 6.407 3.501 0 6.339-2.868 6.34-6.407-.001-3.54-2.839-6.408-6.34-6.41zm34.693 8.283c.85.001 1.533.535 1.535 1.4 0 .93-.662 1.55-1.515 1.552-.848-.002-1.498-.586-1.5-1.457.002-.842.647-1.494 1.48-1.495zm1.6.06h.016c.152 0 .307.016.456.016.118 0 .232-.016.367-.01l1.74 1.982V9.436c0-.262-.143-.334-.259-.353l-.058-.006h-.114v-.155h.018c.186 0 .37.016.553.016.109 0 .217-.007.325-.012l.18-.004v.155h-.075l-.045.002c-.148.009-.288.06-.29.49v1.823c0 .14.003.279.02.401l.004.02h-.02l-.163-.005-2.011-2.266v1.605l.003.102c.015.267.085.345.352.348h.086v.156h-.018c-.171 0-.342-.016-.511-.016l-.12.002-.24.01-.196.004v-.156h.072c.262 0 .337-.17.34-.49V9.42a.34.34 0 00-.345-.343h-.067v-.155zm-12.941 0h.018c.15 0 .307.016.456.016.117 0 .231-.016.364-.011l1.743 1.983V9.436c0-.281-.165-.344-.283-.357l-.044-.002h-.105v-.155h.017c.188 0 .37.016.555.016.108 0 .216-.007.325-.012l.18-.004v.155h-.098l-.045.003c-.14.014-.265.08-.269.488v1.824c0 .104.002.208.011.306l.014.116h-.02l-.162-.006L31 9.542v1.605l.004.102c.015.267.085.346.353.35h.084v.154h-.018c-.171 0-.341-.017-.51-.017l-.12.002-.24.01-.198.005v-.154h.073c.262-.002.337-.172.34-.493V9.42a.34.34 0 00-.343-.343h-.07v-.155zm-11.446 0h.018c.152 0 .306.016.456.016.118 0 .232-.016.366-.01l1.742 1.982V9.436c-.002-.262-.144-.334-.26-.353l-.058-.006h-.115v-.155h.018c.187 0 .37.016.555.016l.107-.002.217-.01.18-.004v.155h-.076l-.045.002c-.148.009-.287.06-.291.49v1.823c0 .104.002.21.012.307l.015.115h-.02l-.164-.006-2.012-2.266v1.605l.004.102c.015.266.085.346.352.35h.085v.154h-.018c-.171 0-.342-.016-.511-.016l-.119.002-.24.01-.198.004v-.154h.074c.262-.002.337-.172.34-.492V9.42a.342.342 0 00-.344-.343h-.07v-.155zm16.18-.1a.046.046 0 01.044.023l.036.1.73 2.096.071.212c.024.07.049.136.074.195.046.107.12.15.247.15h.04v.156l-.018-.001c-.178-.008-.356-.017-.545-.017l-.195.003-.4.014-.017.001v-.157h.061c.091 0 .227-.02.227-.097a.33.33 0 00-.013-.076l-.02-.074-.195-.586h-.875l-.141.46-.048.147a.387.387 0 00-.022.105c.001.089.124.116.246.12l.096.001v.157l-.017-.001c-.16-.008-.321-.017-.48-.017-.094 0-.19.004-.284.01l-.16.008v-.157h.04c.148 0 .27-.085.327-.248l.704-2.035c.035-.105.069-.215.09-.31.123-.044.283-.125.36-.173l.023-.008.014-.002zm12.984.024l.036.1.73 2.095.07.212c.025.07.05.136.076.195.047.107.118.15.245.15h.04v.156l-.017-.001c-.178-.007-.357-.016-.546-.016-.193 0-.392.01-.594.016l-.018.001V11.6h.06c.092 0 .23-.022.23-.1a.321.321 0 00-.013-.075l-.022-.074-.028-.086a7.558 7.558 0 00-.017-.047l-.15-.453h-.875l-.14.46-.048.147a.357.357 0 00-.02.104c0 .09.122.118.243.123h.097v.156l-.018-.001c-.158-.007-.321-.016-.478-.016-.096 0-.19.004-.285.009l-.16.008V11.6h.039c.148-.002.272-.088.33-.25l.634-1.838c.05-.15.122-.348.156-.507a2.11 2.11 0 00.361-.173l.024-.008h.015c.01-.002.03 0 .043.023zm-20.944.076v.018l-.003.063-.002.145v.084l.005.167.007.152v.015l-.152.04v-.02l-.008-.076-.01-.071c-.035-.181-.122-.303-.449-.306h-.534v1.014h.455c.229-.001.268-.12.296-.336l.001-.015h.153v.017a8.833 8.833 0 000 .925v.014l-.015.004-.138.027-.01-.105-.011-.076c-.025-.14-.075-.217-.272-.22h-.459v.917c0 .186.122.23.295.24l.083.003h.089l.172-.002.106-.007c.28-.025.417-.117.51-.467l.003-.016.017.003.127.034-.003.016a8.929 8.929 0 00-.095.424l-.042.226-.261-.003-.512-.01-.209-.003h-.19l-.192.002-.717.014h-.071v-.154h.073l.06-.003c.118-.008.214-.041.215-.21V9.289c-.001-.181-.114-.205-.245-.21l-.103-.001v-.155l.18.002.617.012.207.002.23-.002.585-.012.217-.002zm-8.335 0v.155h-.072l-.06.002c-.12.008-.216.041-.217.21v2.098c0 .154.082.194.187.206l.06.005h.102v.155l-.168-.003-.321-.01a5.58 5.58 0 00-.357.001l-.296.01-.101.002v-.154h.073l.06-.003c.118-.008.215-.041.215-.21V9.289c0-.168-.097-.201-.215-.21l-.06-.001h-.073v-.155l.088.001.342.012.174.003.123-.002.381-.012.135-.002zm6.079-.127l.018.004.111.018-.002.017a8.695 8.695 0 00-.042.323 3.135 3.135 0 00-.008.215v.12l-.152.057-.001-.024-.005-.059c-.013-.142-.053-.31-.272-.31h-.633v2.115c.003.246.082.306.213.322l.064.005h.127v.155h-.08l-.5-.015h-.174l-.515.014h-.08V11.6h.091l.072-.003c.167-.008.235-.042.24-.316V9.157h-.634l-.087.004c-.153.012-.192.053-.227.184l-.037.163-.002.014h-.153l.002-.02.034-.226.014-.116a2.37 2.37 0 00.022-.223l.002-.131h.126l.002.013c.022.078.07.096.139.101l.063.002h2.065l.062-.002c.077-.005.13-.023.136-.106l.001-.019zm3.928.127c.498 0 .959.141.96.722 0 .362-.237.588-.542.713l.665 1.008c.111.167.18.208.373.234l.014.001v.153h-.017c-.132 0-.258-.016-.389-.016-.12 0-.248.016-.386.01a11.337 11.337 0 01-.82-1.292h-.234v.84c.003.23.074.283.19.297l.055.005.062.002h.09v.154h-.019c-.227 0-.457-.016-.682-.016l-.126.002-.253.01-.211.004v-.154h.088c.143-.002.262-.065.264-.2V9.364c-.003-.23-.094-.273-.194-.284l-.07-.003h-.088v-.155l.118.002.353.012.16.002.137-.002.377-.012.125-.002zm11.33 0v.155h-.071l-.061.002c-.119.008-.215.042-.216.21v2.098c0 .168.097.201.216.21l.06.002h.072v.154l-.167-.003-.321-.011-.155-.003-.085.001-.427.015h-.087V11.6h.072l.06-.003c.118-.008.215-.041.215-.21V9.289c0-.167-.097-.201-.215-.209l-.06-.002h-.072v-.155l.088.001.341.012.174.003.123-.002.382-.012.134-.002zm-1.483-.127l.132.022-.004.017a6.948 6.948 0 00-.043.323 3.42 3.42 0 00-.007.215v.12l-.153.057v-.024l-.005-.059c-.013-.142-.053-.31-.272-.31h-.633v2.115c.003.246.082.306.213.322l.064.005h.127v.155h-.08l-.5-.015h-.173l-.516.014h-.08V11.6h.091l.072-.003c.166-.008.235-.042.24-.316V9.157h-.632c-.213.003-.268.03-.307.157l-.017.065-.031.143h-.154l.037-.246.014-.114c.01-.075.018-.15.021-.225l.003-.131h.125l.003.013c.022.078.071.096.14.101l.062.002h2.065l.062-.002c.077-.005.13-.023.135-.106l.001-.019zm10.727.127h.017c.21 0 .417.016.627.016.134 0 .267-.007.4-.012l.218-.004v.155h-.115l-.09.003c-.1.007-.16.037-.163.197v2.066c.002.15.098.19.223.208a3.133 3.133 0 00.52-.008c.16-.02.3-.114.368-.21a.794.794 0 00.104-.228l.02-.068h.15l-.052.249-.1.454-.004.013h-.013c-.35 0-.698-.016-1.046-.016l-.232.002-.466.01-.366.004v-.154h.072l.057-.003c.12-.008.224-.043.225-.25V9.289c-.001-.167-.101-.201-.22-.209l-.062-.002h-.072v-.155zm-7.687.151c-.68 0-.881.61-.883 1.144.001.714.323 1.384.95 1.386.755 0 .885-.669.887-1.252 0-.582-.31-1.277-.954-1.278zM8.439 3.197a4.065 4.065 0 012.582 3.79 4.066 4.066 0 01-2.486 3.753l-.096.039V3.197zm-2.877 0v7.58a4.066 4.066 0 01-2.58-3.79 4.069 4.069 0 012.484-3.751l.096-.039zm29.213 6.234l-.349 1.074h.694l-.345-1.074zm12.94 0l-.349 1.073h.694l-.346-1.072zm-19.083-.33l-.07.001-.055.004-.083.01v1.16h.177c.392-.004.59-.141.593-.607-.002-.35-.217-.567-.562-.569zm22.95-.275c.24 0 .418.186.418.423s-.179.42-.417.42a.411.411 0 01-.418-.42c0-.237.18-.423.418-.423zm0 .079a.34.34 0 00-.33.344c0 .181.142.342.33.342.187 0 .33-.16.33-.342a.338.338 0 00-.33-.344zm.009.117c.072 0 .14.036.14.112a.13.13 0 01-.098.128l.068.097.04.049c.02.023.038.041.052.05v.013h-.081c-.017 0-.034-.016-.053-.044l-.073-.114a1.532 1.532 0 00-.024-.036h-.046v.14c0 .019.005.024.022.028l.038.005v.021h-.201V9.45l.038-.005c.018-.004.023-.01.023-.032V9.1c0-.044-.005-.059-.06-.056v-.022h.215zm-.029.029h-.046v.198h.049c.054 0 .08-.041.08-.107 0-.068-.04-.091-.083-.091zM29.733 3.97c.59 0 1.225.374 1.232 1.154 0 .045 0 .089-.007.133l-.066.045h-2.046a.364.364 0 00-.007.04l-.004.054-.001.069.005.14.007.124c.042.7.487 1.273 1.07 1.273.4 0 .714-.22.983-.493l.102.103c-.335.45-.75.832-1.347.832-.87 0-1.217-.638-1.337-1.155l-.021-.102-.009-.05-.012-.094-.008-.088-.005-.116c0-1.376.875-1.828 1.397-1.867l.074-.003zm17.754.11c.051 0 .058.04.058.103V6.93c0 .133.08.14.204.14l.292-.007v.155a2.71 2.71 0 00-.202.028l-.153.03-.158.033-.227.053-.132.034-.147.04-.031.01-.036-.022v-.595l-.15.122c-.368.295-.684.495-1.14.495-.394 0-.801-.257-.801-.875V4.654l-.004-.06c-.015-.156-.09-.292-.432-.322v-.14l.227-.01.66-.04.052-.001c.065 0 .078.033.08.131l.001 2.032.001.061.008.105.01.076.015.08c.057.237.206.481.6.481.246 0 .574-.191.88-.448V4.617c0-.091-.137-.157-.303-.212l-.102-.031-.206-.058v-.133l.347-.026.411-.039.327-.034.051-.003zm-12.5-.11c.232 0 .545.065.83.212l.05.751H35.7c-.073-.464-.328-.73-.794-.73-.292 0-.568.171-.568.487 0 .35.278.514.608.663l.324.143.106.05c.35.173.651.408.651.897 0 .485-.385 1-1.252 1a1.91 1.91 0 01-.89-.249l-.08-.847.131-.037c.096.486.387.899.919.899.43 0 .589-.266.589-.523 0-.329-.227-.493-.51-.635l-.124-.06-.242-.113-.1-.051c-.327-.175-.611-.415-.611-.916 0-.413.328-.942 1.13-.942zm13.95-2.262c.044 0 .058.044.058.104v2.686c.29-.25.685-.529 1.085-.529.845 0 1.355.744 1.355 1.546 0 .964-.699 1.929-1.742 1.929a1.93 1.93 0 01-.769-.148l-.243-.11-.218.17-.153-.081c.065-.434.101-.862.101-1.31V2.8c0-.349-.057-.452-.195-.513l-.055-.021-.135-.041v-.118c.263-.086.536-.201.7-.289l.163-.09a.133.133 0 01.048-.019zm-8.123.375c.5 0 .982.138 1.46.3l.259.09.072 1.054h-.182c-.138-.861-.743-1.207-1.558-1.207-.05 0-.102.002-.154.006l-.107.011c-.809.108-1.794.726-1.794 2.316 0 1.488 1.05 2.556 2.171 2.556.721 0 1.319-.5 1.465-1.274l.167.044-.167 1.075c-.306.192-1.13.39-1.611.39-1.705 0-2.782-1.112-2.782-2.768 0-1.51 1.332-2.593 2.76-2.593zM33.2 3.97c.182 0 .415.124.415.39 0 .199-.137.376-.342.376a.306.306 0 01-.18-.053l-.066-.048a.362.362 0 00-.235-.076c-.124 0-.532.17-.532.611V6.9c0 .197.096.234.242.241l.07.002h.446v.192l-.665-.012-.237-.002h-.118c-.179 0-.36.002-.534.006l-.333.008v-.192h.27c.165-.004.276-.03.276-.244V4.831c0-.152-.12-.222-.232-.27l-.095-.038-.052-.024V4.39l.16-.07.144-.068.187-.092.3-.153.051-.023a.148.148 0 01.048-.014c.043 0 .065.021.065.096v.662h.015l.062-.096.07-.103c.185-.265.45-.559.8-.559zm10.68-2.261c.044 0 .058.044.058.104v5.086c0 .198.106.235.255.242l.072.002h.161v.192c-.246 0-.502-.015-.765-.015-.262 0-.524.008-.795.015v-.192h.213c.165-.004.276-.03.276-.244V2.8c0-.349-.058-.452-.196-.513l-.055-.021-.135-.041v-.118a4.84 4.84 0 00.7-.289l.164-.09a.133.133 0 01.046-.019zM26.957 3.97c.62 0 .838.456.838 1.03v1.9c0 .197.106.234.255.241l.071.002h.17v.192c-.256 0-.511-.015-.772-.015-.263 0-.526.008-.788.015v-.192h.205c.164-.004.275-.03.275-.244V4.993c0-.42-.254-.626-.67-.626-.233 0-.604.192-.845.354V6.9c0 .198.106.235.256.242l.072.002h.169v.192c-.256 0-.511-.015-.774-.015-.261 0-.524.008-.786.015v-.192h.205c.165-.004.276-.03.276-.244V4.95c0-.24-.063-.326-.312-.438l-.11-.047v-.141l.266-.088a8.11 8.11 0 00.695-.265c.022 0 .043.015.043.073v.48l.153-.111c.354-.25.681-.442 1.108-.442zm-7.263-1.774c1.85 0 2.874 1.225 2.912 2.503l.001.109-.003.076-.005.082-.01.086-.013.092-.021.12-.03.126-.028.104-.033.105-.039.105c-.302.775-1.057 1.63-2.819 1.63h-.219l-.631-.012-.205-.002c-.329 0-.65.008-.977.015v-.192l.153-.016.09-.013c.273-.043.41-.134.427-.53V3.012c0-.496-.193-.596-.427-.618l-.103-.006-.14-.002v-.19c.19.009.382.012.573.013h.365l.923-.012.259-.001zm4.189 1.774c.036 0 .05.044.05.103v2.826c0 .198.107.235.255.242l.072.002h.161v.192c-.247 0-.502-.015-.764-.015s-.525.008-.794.015v-.192h.212c.164-.004.276-.03.276-.244V4.905c0-.264-.072-.342-.244-.44l-.135-.075v-.118l.308-.097.274-.092.12-.043.064-.026.013-.008a.26.26 0 01.132-.036zm25.804.397c-.226 0-.42.123-.593.263l-.1.084v1.788c0 .28.261.751.75.751.78 0 1.108-.773 1.108-1.429 0-.794-.598-1.457-1.165-1.457zm-30.16-1.936l-.148.002-.122.005-.298.023v4.004c0 .48.287.601.591.627l.083.005.083.001c1.574 0 2.09-1.2 2.09-2.296 0-1.377-.873-2.37-2.28-2.37zm10.177 1.774c-.444 0-.75.331-.837.861h1.268c.181 0 .203-.095.203-.183 0-.376-.226-.678-.634-.678zm-6.06-2.091c.189 0 .357.155.357.354a.366.366 0 01-.357.368c-.19 0-.358-.177-.358-.368 0-.184.175-.354.358-.354z"/>
</svg>
