<svg xmlns="http://www.w3.org/2000/svg" xmlns:xlink="http://www.w3.org/1999/xlink" viewBox="0 0 53 9"><defs><linearGradient id="a" x1="100%" x2="0%" y1="0%" y2="100%"><stop offset="0%" stop-color="#979797"/><stop offset="100%" stop-color="gray"/></linearGradient><filter id="c" width="166.7%" height="166.7%" x="-33.3%" y="-33.3%" filterUnits="objectBoundingBox"><feGaussianBlur in="SourceAlpha" result="shadowBlurInner1" stdDeviation="2"/><feOffset dx="2" dy="-2" in="shadowBlurInner1" result="shadowOffsetInner1"/><feComposite in="shadowOffsetInner1" in2="SourceAlpha" k2="-1" k3="1" operator="arithmetic" result="shadowInnerInner1"/><feColorMatrix in="shadowInnerInner1" values="0 0 0 0 0 0 0 0 0 0 0 0 0 0 0 0 0 0 0.4 0"/></filter><circle id="b" cx="28.09" cy="4.5" r="4.5"/></defs><g fill="none" fill-rule="evenodd"><path fill="currentColor" fill-rule="nonzero" d="M20.901 8.873c.713 0 1.324-.14 2.077-.495V6.43c-.662.663-1.249.93-2 .93-1.667 0-2.851-1.21-2.851-2.928 0-1.63 1.221-2.916 2.774-2.916.79 0 1.388.282 2.077.955V.522C22.25.152 21.653 0 20.94 0c-2.51 0-4.52 1.974-4.52 4.443 0 2.495 1.959 4.43 4.48 4.43zm-7.931.013c1.72 0 2.928-1.144 2.928-2.788 0-1.326-.54-1.939-2.35-2.614l-.092-.034c-.994-.368-1.286-.61-1.286-1.07 0-.534.52-.94 1.234-.94.496 0 .904.204 1.335.687l.867-1.134A3.715 3.715 0 0 0 13.11.052c-1.502 0-2.648 1.043-2.648 2.432 0 1.148.514 1.746 2.004 2.297l.313.114c.5.183.771.311.917.401.33.216.496.522.496.878 0 .688-.547 1.198-1.286 1.198-.79 0-1.426-.395-1.807-1.132l-1.07 1.03c.763 1.12 1.68 1.616 2.94 1.616zM2.418 8.682c1.286 0 2.214-.304 3.03-.98a4.26 4.26 0 0 0 1.54-3.26c0-2.505-1.871-4.25-4.557-4.25H0v8.49h2.418zm6.989 0V.192H7.75v8.49h1.656zm27.122.218L40.197.192h-1.795l-2.294 5.703L33.844.192h-1.809L35.638 8.9h.891zm9.113-.218V7.245H42.6V4.953h2.93V3.515H42.6V1.63h3.042V.192h-4.696v8.49h4.696zm2.75 0v-3.41h.217l2.292 3.41h2.037l-2.673-3.577c1.247-.253 1.934-1.107 1.934-2.407 0-1.59-1.095-2.506-3.005-2.506H46.74v8.49h1.654zm.485-4.581h-.484V1.529h.51c1.031 0 1.592.432 1.592 1.259 0 .853-.56 1.313-1.618 1.313zM2.099 7.245h-.444V1.63h.444c1.07 0 1.72.192 2.266.687.573.51.918 1.3.918 2.114 0 .815-.345 1.629-.918 2.139-.52.47-1.196.675-2.266.675z"/><use fill="url(#a)" xlink:href="#b"/><use fill="currentColor" filter="url(#c)" xlink:href="#b"/></g></svg>
