<svg xmlns="http://www.w3.org/2000/svg" viewBox="0 0 40 9"><defs><filter id="a" color-interpolation-filters="auto"><feColorMatrix in="SourceGraphic" values="0 0 0 0 0.000000 0 0 0 0 0.000000 0 0 0 0 0.000000 0 0 0 1.000000 0"/></filter></defs><g fill="none" fill-rule="evenodd" filter="url(#a)" transform="translate(-575 -814)"><path fill="currentColor" fill-rule="nonzero" d="M613.861 820.665c-.629 0-1.139.513-1.139 1.147s.51 1.148 1.14 1.148c.628 0 1.138-.514 1.138-1.148 0-.634-.51-1.147-1.139-1.147zm-3.746-.888c0-.868-.736-1.571-1.644-1.571-.908 0-1.644.703-1.644 1.571s.736 1.572 1.644 1.572c.908 0 1.644-.704 1.644-1.572zm.006-3.054h1.814v6.108h-1.814v-.39a3.163 3.163 0 0 1-1.799.559c-1.766 0-3.197-1.443-3.197-3.223 0-1.78 1.431-3.222 3.197-3.222.668 0 1.286.207 1.799.559v-.39zm-14.52.796v-.796h-1.857v6.108h1.862v-2.852c0-.962 1.034-1.479 1.752-1.479l.022.001v-1.777c-.737 0-1.415.318-1.778.795zm-4.626 2.258c0-.868-.737-1.571-1.644-1.571-.908 0-1.644.703-1.644 1.571s.736 1.572 1.644 1.572c.908 0 1.644-.704 1.644-1.572zm.006-3.054h1.814v6.108h-1.814v-.39a3.163 3.163 0 0 1-1.799.559c-1.766 0-3.197-1.443-3.197-3.223 0-1.78 1.431-3.222 3.197-3.222.667 0 1.286.207 1.799.56v-.392zm10.92-.164c-.725 0-1.41.227-1.87.853v-.688h-1.806v6.107h1.829v-3.21c0-.928.618-1.383 1.362-1.383.797 0 1.256.48 1.256 1.37v3.223h1.812v-3.884c0-1.421-1.121-2.388-2.583-2.388zm-18.56 6.272h1.9v-8.83h-1.9v8.83zm-8.341.002h2.01V814H575v8.833zm7.033-8.833a7.06 7.06 0 0 1-2.057 5.014l2.78 3.82h-2.484l-3.02-4.152.779-.588a5.086 5.086 0 0 0 2.034-4.094h1.968z"/></g></svg>
