<svg xmlns="http://www.w3.org/2000/svg" viewBox="0 0 23 18">
  <path fill="currentColor" d="M11.5 1.532a7.15 7.15 0 00-2.715 5.62A7.15 7.15 0 0011.5 12.77a7.15 7.15 0 002.715-5.62A7.15 7.15 0 0011.5 1.533zM15.893 0c-1.455 0-2.808.44-3.935 1.195.058.048.116.094.172.143a7.723 7.723 0 012.634 5.813c0 2.228-.96 4.347-2.634 5.813-.055.048-.114.095-.172.143a7.044 7.044 0 003.935 1.195C19.818 14.302 23 11.1 23 7.151 23 3.201 19.818 0 15.893 0zM10.87 12.964c.056.048.114.095.172.143a7.042 7.042 0 01-3.935 1.195C3.182 14.302 0 11.1 0 7.151 0 3.201 3.182 0 7.107 0c1.455 0 2.808.44 3.935 1.195-.058.048-.116.094-.172.143a7.724 7.724 0 00-2.634 5.813c0 2.228.96 4.347 2.634 5.813zm11.907-1.382v-.277h-.072l-.082.19-.083-.19h-.072v.277h.05v-.21l.078.181h.053l.078-.18v.21h.05zm-.456 0v-.23h.092v-.047h-.234v.047h.092v.23h.05zm.28 6.143a.09.09 0 01.058.017c.014.011.02.026.02.046 0 .016-.005.03-.016.04a.079.079 0 01-.047.02l.065.075h-.05l-.06-.074h-.02v.074h-.042v-.198h.091zm-.025.233a.14.14 0 00.102-.043.143.143 0 00.042-.104.146.146 0 00-.144-.146.146.146 0 00-.136.09.146.146 0 00-.011.056.147.147 0 00.147.147zm0-.335a.186.186 0 01.134.055.184.184 0 01.041.206.192.192 0 01-.175.116.192.192 0 01-.178-.116.184.184 0 01.04-.206.192.192 0 01.137-.055zM4.97 16.948c0-.333.217-.607.572-.607.34 0 .569.262.569.607 0 .346-.23.608-.569.608-.355 0-.572-.274-.572-.608zm1.528 0V16h-.41v.23a.714.714 0 00-.597-.278c-.529 0-.944.418-.944.997 0 .58.415.998.944.998a.714.714 0 00.596-.279v.23h.41v-.949zm13.865 0c0-.333.217-.607.573-.607.34 0 .568.262.568.607 0 .346-.229.608-.568.608-.356 0-.573-.274-.573-.608zm1.528 0v-1.712h-.41v.994a.714.714 0 00-.597-.279c-.529 0-.943.418-.943.997 0 .58.414.998.943.998a.714.714 0 00.596-.279v.23h.411v-.949zm-10.3-.627c.264 0 .434.167.477.46h-.979c.044-.274.21-.46.502-.46zm.008-.37c-.553 0-.94.406-.94.997 0 .604.403.998.967.998.284 0 .545-.072.774-.267l-.201-.306a.896.896 0 01-.55.2c-.264 0-.505-.124-.564-.466h1.402a2.04 2.04 0 00.008-.159c-.004-.591-.367-.997-.896-.997zm4.954.997c0-.333.217-.607.573-.607.34 0 .568.262.568.607 0 .346-.229.608-.568.608-.356 0-.573-.274-.573-.608zm1.528 0V16h-.41v.23a.714.714 0 00-.597-.278c-.529 0-.943.418-.943.997 0 .58.414.998.943.998a.714.714 0 00.597-.279v.23h.41v-.949zm-3.845 0c0 .576.399.998 1.007.998a.986.986 0 00.679-.227l-.198-.334a.826.826 0 01-.493.171c-.328-.004-.569-.242-.569-.608 0-.365.241-.603.569-.607.177 0 .34.06.493.17l.198-.333a.987.987 0 00-.68-.227c-.607 0-1.006.422-1.006.997zm5.29-.997a.556.556 0 00-.497.279V16h-.407v1.898h.41v-1.065c0-.313.135-.488.403-.488a.68.68 0 01.257.047l.126-.389a.874.874 0 00-.292-.052zm-11 .2c-.197-.132-.469-.2-.769-.2-.478 0-.786.23-.786.608 0 .31.23.5.652.56l.193.028c.225.032.332.091.332.199 0 .147-.15.23-.43.23a.995.995 0 01-.628-.199l-.194.322c.225.167.51.247.818.247.544 0 .86-.259.86-.62 0-.334-.248-.509-.659-.568l-.193-.028c-.178-.024-.32-.06-.32-.187 0-.139.134-.222.36-.222.24 0 .473.091.587.163l.178-.334zm5.295-.2a.556.556 0 00-.497.279V16h-.407v1.898h.41v-1.065c0-.313.135-.488.404-.488.082 0 .17.012.256.047l.126-.389a.872.872 0 00-.292-.052zM10.32 16h-.67v-.576h-.415V16H8.85v.378h.383v.865c0 .441.17.704.655.704a.962.962 0 00.513-.147l-.118-.354a.754.754 0 01-.363.107c-.206 0-.273-.127-.273-.318v-.857h.671V16zm-6.135 1.899v-1.192c0-.449-.284-.75-.742-.755-.24-.004-.49.072-.663.338a.692.692 0 00-.624-.338.623.623 0 00-.553.283V16h-.41v1.899h.414v-1.053c0-.33.182-.504.462-.504.272 0 .41.179.41.5v1.057h.415v-1.053c0-.33.19-.504.462-.504.28 0 .414.179.414.5v1.057h.415z"/>
</svg>
