<svg xmlns="http://www.w3.org/2000/svg" viewBox="0 0 64 11">
  <defs>
    <filter id="a" color-interpolation-filters="auto">
      <feColorMatrix in="SourceGraphic" values="0 0 0 0 0.000000 0 0 0 0 0.000000 0 0 0 0 0.000000 0 0 0 1.000000 0"/>
    </filter>
  </defs>
  <g fill="none" fill-rule="evenodd" filter="url(#a)" transform="translate(-492 -813)">
    <path fill="currentColor" d="M535.231 815.193c.491 0 .947.092 1.36.278.413.185.769.434 1.06.754.293.32.52.698.684 1.14.164.44.242.918.242 1.43 0 .513-.078.99-.242 1.432a3.448 3.448 0 01-.683 1.139c-.292.32-.648.57-1.061.754a3.294 3.294 0 01-1.36.278 2.29 2.29 0 01-.662-.092 3.012 3.012 0 01-.605-.25 2.431 2.431 0 01-.499-.363 1.706 1.706 0 01-.341-.448V824h-2.179v-8.636h2.179v.982c.085-.15.199-.299.341-.441.143-.143.307-.264.499-.37.192-.107.391-.185.605-.25a2.29 2.29 0 01.662-.092zm14.724.249l1.345 3.624 1.688-3.624h2.549L551.343 824h-2.549l1.225-2.47-2.755-6.088h2.69zm-49.532 1.488l.1.242a4.617 4.617 0 01-4.272 6.244 4.74 4.74 0 01-1.83-.363l6.002-6.123zm42.056-1.666c.22 0 .434.029.655.093.22.064.42.142.605.249.185.107.35.228.492.37.142.142.256.292.341.441v-.982h2.179v6.863h-2.179v-.968c-.085.164-.2.313-.341.449a2.287 2.287 0 01-.492.356 3.07 3.07 0 01-.605.242 2.31 2.31 0 01-.655.092c-.491 0-.947-.092-1.36-.277a3.166 3.166 0 01-1.06-.755 3.446 3.446 0 01-.684-1.14 4.081 4.081 0 01-.242-1.43c0-.513.078-.99.242-1.431.164-.442.391-.82.683-1.14.292-.32.648-.57 1.061-.754a3.294 3.294 0 011.36-.278zm-15.92-.085c.541 0 1.026.085 1.46.256.434.17.804.399 1.11.683a2.978 2.978 0 01.962 2.193c0 .143 0 .292-.007.456a4.44 4.44 0 01-.065.555h-4.94c.007.207.042.406.092.591.05.185.135.35.256.484.121.136.27.25.463.328.192.078.427.12.712.12.377 0 .67-.077.861-.227a1.2 1.2 0 00.406-.555h2.136c-.05.32-.156.626-.334.911a2.668 2.668 0 01-.698.748 3.446 3.446 0 01-1.025.505c-.392.121-.84.185-1.332.185-.598 0-1.125-.085-1.587-.263a3.2 3.2 0 01-1.161-.748 3.216 3.216 0 01-.712-1.146 4.16 4.16 0 01-.242-1.46c0-.505.078-.975.235-1.41a3.31 3.31 0 01.698-1.146c.306-.327.69-.583 1.139-.776.448-.192.975-.284 1.573-.284zm-14.033.007c.22 0 .435.028.655.092.221.064.42.143.605.25.186.106.35.227.492.37.142.142.256.292.341.441v-.975h2.18v6.856h-2.18v-.968a1.707 1.707 0 01-.341.448 2.283 2.283 0 01-.492.356c-.185.1-.384.178-.605.242a2.31 2.31 0 01-.655.093c-.491 0-.947-.093-1.36-.278a3.166 3.166 0 01-1.06-.754 3.449 3.449 0 01-.684-1.14 4.082 4.082 0 01-.242-1.43c0-.513.078-.99.242-1.432.164-.441.392-.819.684-1.139.291-.32.647-.57 1.06-.755a3.294 3.294 0 011.36-.277zM520.92 813v2.364h2.1l-.832 1.623h-1.268v2.442c0 .256.022.463.072.612.05.15.114.27.199.35a.687.687 0 00.299.163c.114.029.235.043.37.043h.413c.143 0 .264-.014.37-.036v1.666a7.192 7.192 0 01-.605.078 9.69 9.69 0 01-.847.036 6.52 6.52 0 01-.812-.057 1.867 1.867 0 01-.79-.292c-.242-.156-.441-.398-.598-.726-.157-.328-.235-.776-.235-1.346v-2.933h-1.082v-1.623h1.082v-1.196L520.92 813zm-12.352 2.25c.242 0 .448.043.62.107l-.976 1.893a1.88 1.88 0 00-1.196.513c-.364.356-.542.947-.542 1.78v2.677h-2.178v-6.856h2.178v1.11c.164-.32.428-.605.805-.854.377-.25.805-.37 1.289-.37zm34.374 1.865c-.25 0-.47.05-.67.143-.199.092-.37.22-.512.384a1.835 1.835 0 00-.456 1.225c0 .235.043.462.121.676.079.214.193.399.335.555a1.564 1.564 0 001.182.52 1.564 1.564 0 001.182-.52c.142-.156.256-.341.334-.555.079-.214.121-.441.121-.676a1.835 1.835 0 00-.456-1.225 1.52 1.52 0 00-.512-.384 1.56 1.56 0 00-.67-.143zm-29.96-.071a1.52 1.52 0 00-1.182.527 1.837 1.837 0 00-.456 1.224c0 .235.043.463.121.677.079.213.193.399.335.555.142.157.313.285.513.378.199.092.427.142.669.142a1.564 1.564 0 001.182-.52c.142-.156.256-.342.334-.555a1.95 1.95 0 00.121-.677 1.836 1.836 0 00-.456-1.225 1.518 1.518 0 00-.512-.384c-.2-.092-.42-.142-.67-.142zm21.793 0c-.249 0-.47.05-.676.142a1.567 1.567 0 00-.52.378 1.676 1.676 0 00-.334.555 1.961 1.961 0 000 1.353c.078.213.192.399.334.555.143.157.314.285.52.378a1.62 1.62 0 001.331 0c.2-.093.37-.221.513-.378.143-.156.256-.342.335-.555a1.961 1.961 0 000-1.353 1.676 1.676 0 00-.335-.555 1.598 1.598 0 00-.513-.378 1.523 1.523 0 00-.655-.142zm-38.61-2.862a4.596 4.596 0 012.4.655l-4.265 4.35-2.3-2.257a4.605 4.605 0 014.165-2.748zm30.38 2.449c-.427 0-.776.121-1.054.37-.277.25-.413.605-.413 1.068h2.877c0-.448-.128-.797-.392-1.053-.263-.257-.605-.385-1.018-.385z"/>
  </g>
</svg>
