<svg xmlns="http://www.w3.org/2000/svg" viewBox="0 0 80 48">
  <g fill="none" fill-rule="evenodd">
    <path d="M0 0h80v48H0z"/>
    <path fill="currentColor" d="M61 8a3 3 0 013 3v26a3 3 0 01-3 3H19a3 3 0 01-3-3V11a3 3 0 013-3h42zM30.51 30.82c-1.089 0-1.777.784-1.777 1.688 0 .72.432 1.28 1.504 1.592.584.168.952.28.952.744 0 .432-.312.704-.768.704-.488 0-.856-.312-1.08-.6l-.752.76c.4.544 1.056.896 1.816.896 1.088 0 1.92-.728 1.92-1.8 0-.992-.704-1.424-1.568-1.68-.552-.16-.896-.28-.896-.672 0-.328.24-.584.616-.584.32 0 .56.184.728.464l.904-.568c-.28-.624-.912-.944-1.6-.944zm4.293 1.704c-1.152 0-2.088.92-2.088 2.04s.936 2.04 2.088 2.04c1.152 0 2.088-.92 2.088-2.04s-.936-2.04-2.088-2.04zm7.154 0c-1.152 0-2.088.92-2.088 2.04s.936 2.04 2.088 2.04c1.152 0 2.088-.92 2.088-2.04s-.936-2.04-2.088-2.04zm8.856 2.584a.73.73 0 00-.728.728c0 .4.328.728.728.728a.73.73 0 00.728-.728.73.73 0 00-.728-.728zM39.584 30.9h-.16c-1.328 0-1.976.88-1.976 1.92v3.68h1.088v-1.616c0-.536.416-.92 1.016-.936v-1.04c-.432 0-.776.128-1.016.384v-.416c0-.672.44-.976 1.048-.952V30.9zm7.17 1.664c-.495-.016-.847.152-1.063.504v-.44h-1.056V36.5h1.088v-1.768c0-.64.376-1 1.032-1v-1.168zm1.71-1.184h-1.088v3.2c0 1.04.648 1.92 1.976 1.92h.16v-1.024c-.608.024-1.048-.28-1.048-.952v-.944c.24.256.584.384 1.016.384v-1.04c-.592-.016-1.016-.408-1.016-.936v-.608zm-13.661 2.168c.56 0 1 .44 1 1.016a.994.994 0 01-1 1.016c-.56 0-1-.44-1-1.016a.994.994 0 011-1.016zm7.154 0c.56 0 1 .44 1 1.016a.994.994 0 01-1 1.016c-.56 0-1-.44-1-1.016a.994.994 0 011-1.016zm2.805-23.055a1.714 1.714 0 00-2.086 1.215l-1.354 4.634-1.067-4.56-.039-.155a1.64 1.64 0 00-1.913-1.121c-.837.178-1.388 1.16-1.176 2.055l.627 5.153c-.545-.54-1.184-.705-1.917-.28l-.096.064-.113.086c-.575.487-.67 1.364-.26 2.167a1.468 1.468 0 00-.98.445l-.067.07-.097.11c-.51.649-.358 1.652.374 2.387l.63.623.001.087c.118 2.815 2.402 4.789 5.114 4.833h.01l.089-.001h.18c3.615-.069 5.253-2.204 5.593-5.443l.022-.239c.09-1.075-.11-1.811-.528-2.256l-.099-.097a1.1 1.1 0 00-.56-.286l-.639-.149 1.49-7.426.025-.147a1.641 1.641 0 00-1.164-1.769zm-4.647 9.203a1.701 1.701 0 01.776.025l4.032.941.036.009.042.016a.65.65 0 01.204.151c.27.289.42.833.344 1.727-.262 3.116-1.707 5.057-5.126 5.051h.012c-2.158 0-4.004-1.386-4.428-3.456l.516.51.12.105a1.56 1.56 0 002.08-.134l.068-.071.103-.119c.385-.49.434-1.155.15-1.688.048-.026.096-.055.143-.086l.077-.051.124-.095c.119-.1.22-.216.304-.345.233.122.514.23.846.32l.966.216-.14.085c-.636.418-1.028 1.146-1.08 2.211a.345.345 0 00.69.033c.05-1.033.452-1.59 1.102-1.835a2.347 2.347 0 011.146-.11c.445.082.58-.578.139-.677l-2.656-.593-.185-.053a2.587 2.587 0 01-.684-.305.32.32 0 00-.166-.127c-.292-.278-.303-.626-.166-1.081.1-.335.303-.506.611-.574zm-5.143.902a.784.784 0 01.937-.007l1.119 1.668.097.128c.308.366.757.56 1.21.555l-.037-.044.055.062a.867.867 0 01.014 1.043l-.075.089-.066.07-.087.077a.868.868 0 01-1.133-.062l-1.92-1.902-.106-.116c-.43-.507-.474-1.093-.162-1.414l.068-.07zm1.331-2.63c.466-.21.87.025 1.285.628l.353.53a.344.344 0 00.065.094l.765 1.138c-.107.549-.016 1.03.36 1.421a.854.854 0 01-.254.275l-.074.05-.102.058a.868.868 0 01-1.1-.29l-1.511-2.247-.076-.126c-.327-.585-.256-1.175.114-1.43l.074-.048zm7.076-6.189a1.02 1.02 0 011.2-.62l.104.038a.951.951 0 01.542 1.07l-1.488 7.41-2.673-.624-.026-.007a2.318 2.318 0 00-.155-.032 2.364 2.364 0 00-.918.008l-.144.038a1.416 1.416 0 00-.741.52l-.495-.736-.775-6.386-.008-.042-.022-.116c-.064-.505.254-1.03.667-1.119a.953.953 0 011.133.747l1.368 5.845.016.05a.33.33 0 00.073.112.235.235 0 00.057.047l.012.01a.346.346 0 00.513-.198l1.722-5.901z"/>
  </g>
</svg>
