<svg xmlns="http://www.w3.org/2000/svg" viewBox="0 0 31 10"><defs><filter id="a" color-interpolation-filters="auto"><feColorMatrix in="SourceGraphic" values="0 0 0 0 0.000000 0 0 0 0 0.000000 0 0 0 0 0.000000 0 0 0 1.000000 0"/></filter></defs><g fill="none" fill-rule="evenodd" filter="url(#a)" transform="translate(-442 -813)"><g fill="currentColor" fill-rule="nonzero"><path d="M455.375 822.845h-2.5l1.564-9.67h2.5zm9.064-9.433a6.162 6.162 0 0 0-2.243-.412c-2.469 0-4.208 1.317-4.218 3.2-.02 1.388 1.245 2.16 2.191 2.623.967.473 1.296.782 1.296 1.203-.01.648-.781.947-1.501.947-.998 0-1.533-.154-2.346-.515l-.33-.154-.35 2.17c.587.268 1.668.505 2.79.515 2.623 0 4.33-1.296 4.351-3.302.01-1.1-.658-1.944-2.099-2.634-.874-.442-1.41-.74-1.41-1.193.01-.412.453-.833 1.44-.833a4.27 4.27 0 0 1 1.863.37l.226.103.34-2.088zm3.323 6.008.998-2.706c-.01.02.206-.566.33-.926l.174.833s.474 2.315.576 2.798h-2.078zm3.086-6.245h-1.934c-.596 0-1.049.175-1.306.803l-3.714 8.867h2.623l.525-1.45h3.21c.072.339.299 1.45.299 1.45h2.315l-2.018-9.67zm-20.062 0-2.448 6.594-.268-1.337c-.453-1.543-1.872-3.22-3.457-4.053l2.243 8.456h2.644l3.93-9.66h-2.644z"/><path d="M446.064 813.175h-4.023l-.041.196c3.138.802 5.216 2.736 6.07 5.061l-.874-4.444c-.144-.617-.587-.792-1.132-.813z"/></g></g></svg>
